<svg width="16" height="18" viewBox="0 0 16 18" fill="none" xmlns="http://www.w3.org/2000/svg">
<path d="M14.8569 11.9927L8.217 5.14847C7.75214 4.65368 7.18458 4.40633 6.51414 4.40633C5.88937 4.40633 5.35999 4.63012 4.92564 5.0778C4.49117 5.52539 4.2741 6.07126 4.2741 6.71528C4.2741 7.40639 4.51411 7.9915 4.99409 8.47053L9.67984 13.3004C9.75598 13.3789 9.84 13.4181 9.93134 13.4181C10.0533 13.4181 10.2323 13.2963 10.4683 13.053C10.7045 12.8096 10.8224 12.6248 10.8224 12.4992C10.8224 12.4051 10.7845 12.3187 10.7083 12.2401L6.02271 7.41027C5.83225 7.19819 5.73702 6.96656 5.73702 6.71528C5.73702 6.48741 5.80935 6.29897 5.95414 6.14977C6.09884 6.00054 6.28181 5.92598 6.50277 5.92598C6.7618 5.92598 6.99032 6.02009 7.1885 6.20857L13.8282 13.0528C14.3085 13.5474 14.5485 14.1167 14.5485 14.7606C14.5485 15.2635 14.3884 15.6797 14.0685 16.0094C13.7483 16.3392 13.3447 16.5044 12.8569 16.5044C12.2321 16.5044 11.6798 16.2568 11.2 15.762L2.33135 6.60896C1.75229 6.01213 1.46293 5.30134 1.46293 4.47672C1.46293 3.64421 1.74092 2.93343 2.29716 2.34448C2.85332 1.75562 3.53517 1.46106 4.34287 1.46106C5.1199 1.46106 5.80935 1.76341 6.41126 2.36792L13.3369 9.51837C13.4131 9.59701 13.5007 9.636 13.5998 9.636C13.7217 9.636 13.899 9.51627 14.1311 9.27679C14.3636 9.03732 14.4795 8.85474 14.4795 8.72911C14.4795 8.63499 14.4416 8.54851 14.3655 8.46999L7.45125 1.33122C6.5751 0.443793 5.5352 0 4.33138 0C3.11995 0 2.09526 0.435954 1.25718 1.30766C0.41902 2.1794 0 3.23966 0 4.48827C0 5.71337 0.430388 6.7775 1.29132 7.68065L10.1714 16.8221C10.9332 17.6072 11.8283 18 12.8569 18C13.7483 18 14.4951 17.6897 15.0969 17.0692C15.6988 16.4491 16 15.6792 16 14.7602C15.9998 13.6844 15.6186 12.7618 14.8569 11.9927Z" fill="#BDBDBD"/>
</svg>
