<svg width="97" height="19" viewBox="0 0 97 19" xmlns="http://www.w3.org/2000/svg">
    <path d="M16.2138 0.516V18H12.1338V10.608H5.02981V18H0.949813V0.516H5.02981V7.824H12.1338V0.516H16.2138ZM23.6861 3.636V7.716H29.1821V10.716H23.6861V14.88H30.8621V18H19.6061V0.516H30.8621V3.636H23.6861ZM43.8999 14.76V18H33.3639V0.516H37.4199V14.76H43.8999ZM52.1413 9.096C53.1973 9.096 53.9573 8.844 54.4213 8.34C54.8853 7.836 55.1173 7.132 55.1173 6.228C55.1173 5.828 55.0573 5.464 54.9373 5.136C54.8173 4.808 54.6333 4.528 54.3853 4.296C54.1453 4.056 53.8373 3.872 53.4613 3.744C53.0933 3.616 52.6533 3.552 52.1413 3.552H50.0293V9.096H52.1413ZM52.1413 0.516C53.3733 0.516 54.4293 0.664 55.3093 0.959999C56.1973 1.248 56.9253 1.648 57.4933 2.16C58.0693 2.672 58.4933 3.276 58.7653 3.972C59.0373 4.668 59.1733 5.42 59.1733 6.228C59.1733 7.1 59.0333 7.9 58.7533 8.628C58.4733 9.356 58.0453 9.98 57.4693 10.5C56.8933 11.02 56.1613 11.428 55.2733 11.724C54.3933 12.012 53.3493 12.156 52.1413 12.156H50.0293V18H45.9733V0.516H52.1413ZM78.3911 9.252C78.3911 10.516 78.1711 11.692 77.7311 12.78C77.2991 13.868 76.6871 14.816 75.8951 15.624C75.1031 16.424 74.1471 17.052 73.0271 17.508C71.9151 17.964 70.6791 18.192 69.3191 18.192C67.9591 18.192 66.7191 17.964 65.5991 17.508C64.4791 17.052 63.5191 16.424 62.7191 15.624C61.9271 14.816 61.3111 13.868 60.8711 12.78C60.4391 11.692 60.2231 10.516 60.2231 9.252C60.2231 7.988 60.4391 6.812 60.8711 5.724C61.3111 4.636 61.9271 3.692 62.7191 2.892C63.5191 2.092 64.4791 1.464 65.5991 1.008C66.7191 0.552 67.9591 0.323999 69.3191 0.323999C70.6791 0.323999 71.9151 0.555999 73.0271 1.02C74.1471 1.476 75.1031 2.104 75.8951 2.904C76.6871 3.704 77.2991 4.648 77.7311 5.736C78.1711 6.824 78.3911 7.996 78.3911 9.252ZM74.2391 9.252C74.2391 8.388 74.1271 7.612 73.9031 6.924C73.6791 6.228 73.3551 5.64 72.9311 5.16C72.5151 4.68 72.0031 4.312 71.3951 4.056C70.7871 3.8 70.0951 3.672 69.3191 3.672C68.5351 3.672 67.8351 3.8 67.2191 4.056C66.6111 4.312 66.0951 4.68 65.6711 5.16C65.2551 5.64 64.9351 6.228 64.7111 6.924C64.4871 7.612 64.3751 8.388 64.3751 9.252C64.3751 10.124 64.4871 10.908 64.7111 11.604C64.9351 12.292 65.2551 12.876 65.6711 13.356C66.0951 13.836 66.6111 14.204 67.2191 14.46C67.8351 14.708 68.5351 14.832 69.3191 14.832C70.0951 14.832 70.7871 14.708 71.3951 14.46C72.0031 14.204 72.5151 13.836 72.9311 13.356C73.3551 12.876 73.6791 12.292 73.9031 11.604C74.1271 10.908 74.2391 10.124 74.2391 9.252ZM96.0419 0.516V18H93.9299C93.6179 18 93.3539 17.952 93.1379 17.856C92.9299 17.752 92.7219 17.576 92.5139 17.328L84.2699 6.9C84.3019 7.212 84.3219 7.516 84.3299 7.812C84.3459 8.1 84.3539 8.372 84.3539 8.628V18H80.7779V0.516H82.9139C83.0899 0.516 83.2379 0.524 83.3579 0.539999C83.4779 0.555999 83.5859 0.587999 83.6819 0.636C83.7779 0.676 83.8699 0.736 83.9579 0.816C84.0459 0.895999 84.1459 1.004 84.2579 1.14L92.5739 11.64C92.5339 11.304 92.5059 10.98 92.4899 10.668C92.4739 10.348 92.4659 10.048 92.4659 9.768V0.516H96.0419Z"/>
</svg>
